<svg viewBox="-640 -275.5 1280 551" width="1280" height="551" style="background-color: rgb(255, 255, 255);" xmlns="http://www.w3.org/2000/svg"><path d="M-124.83246940057624,-5.170648582748292L-130.90452928678008,-6.703632702587878M-130.90452928678008,-35.50457641507875L-130.90452928678008,-6.703632702587878M-130.90452928678008,-6.703632702587878L-144.65099578335054,21.814004571228143M-124.83246940057624,-33.97159229523916L-124.83246940057624,-5.170648582748292M-124.83246940057624,-5.170648582748292L-138.57893589714672,23.346988691067736" style="fill:none;stroke:rgb(0,0,0);stroke-width:1;stroke-linecap:round"></path><path d="M-144.65099578335054,21.814004571228146L-130.90452928678008,-6.703632702587877L-124.83246940057624,-5.17064858274829zM-124.83246940057624,-5.17064858274829L-130.90452928678008,-6.703632702587877L-130.90452928678008,-35.50457641507875z" style="fill:rgb(238,238,238); fill-opacity: 0.39"></path><path d="M-63.23632236335344,10.58169206134558L-86.22258074457204,4.778460582519087M-86.22258074457204,-20.381628158106942L-86.22258074457204,4.778460582519087M-86.22258074457204,4.778460582519087L-98.23129547199107,29.69105690730603" style="fill:none;stroke:rgb(0,0,0);stroke-width:1;stroke-linecap:round"></path><path d="M-138.57893589714672,23.346988691067736L-144.65099578335054,21.814004571228146L-124.83246940057624,-5.17064858274829z" style="fill:rgb(238,238,238); fill-opacity: 0.39"></path><path d="M-63.23632236335344,-14.578396679280448L-63.23632236335344,10.58169206134558M-63.23632236335344,10.58169206134558L-75.24503709077248,35.494288386132524M-132.740190848771,6.747827247183724L-138.81225073497484,5.214843127344138M-138.81225073497484,4.060649278656428L-138.81225073497484,5.214843127344138M-138.81225073497484,5.214843127344138L-139.363138484693,6.357683509559485" style="fill:none;stroke:rgb(0,0,0);stroke-width:1;stroke-linecap:round"></path><path d="M-138.57893589714672,23.346988691067736L-124.83246940057624,-5.17064858274829L-124.83246940057624,-33.97159229523916zM-124.83246940057624,-33.97159229523916L-124.83246940057624,-5.17064858274829L-130.90452928678008,-35.50457641507875z" style="fill:rgb(238,238,238); fill-opacity: 0.39"></path><path d="M-139.363138484693,6.357683509559489L-138.81225073497484,5.214843127344141L-132.74019084877102,6.7478272471837295zM-132.74019084877102,6.7478272471837295L-138.81225073497484,5.214843127344141L-138.81225073497484,4.060649278656433z" style="fill:rgb(153,221,255); fill-opacity: 0.48"></path><path d="M-139.363138484693,5.203489660871776L-139.363138484693,6.357683509559485M-139.363138484693,6.357683509559485L-133.29107859848915,7.890667629399071" style="fill:none;stroke:rgb(0,0,0);stroke-width:1;stroke-linecap:round"></path><path d="M-138.81225073497484,5.214843127344141L-139.363138484693,6.357683509559489L-139.363138484693,5.203489660871777zM-138.81225073497484,4.060649278656433L-138.81225073497484,5.214843127344141L-139.363138484693,5.203489660871777z" style="fill:rgb(153,221,255); fill-opacity: 0.48"></path><path d="M-132.740190848771,5.593633398496017L-138.81225073497484,4.060649278656428M-138.81225073497484,4.060649278656428L-139.363138484693,5.203489660871776M-132.7401952333919,5.593632427460049L-132.7401952333919,6.747826276147758M-132.7401952333919,6.747826276147758L-133.2910829174391,7.890666522125915M-132.7401952333919,6.747826276147758L-93.3712745088168,15.185310642100697M-132.740190848771,5.593633398496017L-132.740190848771,6.747827247183724M-132.740190848771,6.747827247183724L-133.29107859848915,7.890667629399071" style="fill:none;stroke:rgb(0,0,0);stroke-width:1;stroke-linecap:round"></path><path d="M-133.29107859848918,7.890667629399076L-139.363138484693,6.357683509559489L-132.74019084877102,6.7478272471837295zM-132.74019084877102,5.593633398496021L-132.74019084877102,6.7478272471837295L-138.81225073497484,4.060649278656433z" style="fill:rgb(153,221,255); fill-opacity: 0.48"></path><path d="M-132.74019090358277,5.59363338465795L-132.74019090358277,6.747827233345658L-133.29107865330093,7.8906676155610045z" style="fill:rgb(255,187,187); fill-opacity: 0.48"></path><path d="M-133.29107859848918,7.890667629399076L-132.74019084877102,6.7478272471837295L-132.74019084877102,5.593633398496021z" style="fill:rgb(153,221,255); fill-opacity: 0.48"></path><path d="M-139.363138484693,5.203489660871776L-133.29107859848915,6.736473780711362" style="fill:none;stroke:rgb(0,0,0);stroke-width:1;stroke-linecap:round"></path><path d="M-139.363138484693,5.203489660871777L-139.363138484693,6.357683509559489L-133.29107859848918,6.736473780711366zM-139.363138484693,5.203489660871777L-133.29107859848918,6.736473780711366L-138.81225073497484,4.060649278656433zM-139.363138484693,6.357683509559489L-133.29107859848918,7.890667629399076L-133.29107859848918,6.736473780711366zM-133.29107859848918,6.736473780711366L-132.74019084877102,5.593633398496021L-138.81225073497484,4.060649278656433z" style="fill:rgb(153,221,255); fill-opacity: 0.48"></path><path d="M-133.2910829174391,7.890666522125915L-133.2910829174391,6.736472673438206M-133.2910829174391,7.890666522125915L-93.3712745088168,15.185310642100697M-133.29107859848915,6.736473780711362L-133.29107859848915,7.890667629399071M-132.7401952333919,5.593632427460049L-133.2910829174391,6.736472673438206M-132.7401952333919,5.593632427460049L-93.3712745088168,15.185310642100697M-132.740190848771,5.593633398496017L-133.29107859848915,6.736473780711362" style="fill:none;stroke:rgb(0,0,0);stroke-width:1;stroke-linecap:round"></path><path d="M-132.74019090358277,5.59363338465795L-133.29107865330093,7.8906676155610045L-133.29107865330093,6.736473766873295z" style="fill:rgb(255,187,187); fill-opacity: 0.48"></path><path d="M-133.29107859848918,6.736473780711366L-133.29107859848918,7.890667629399076L-132.74019084877102,5.593633398496021z" style="fill:rgb(153,221,255); fill-opacity: 0.48"></path><path d="M-133.2910829174391,6.736472673438206L-93.3712745088168,15.185310642100697" style="fill:none;stroke:rgb(0,0,0);stroke-width:1;stroke-linecap:round"></path><path d="M-98.23129547199105,29.69105690730603L-86.22258074457201,4.778460582519088L-63.23632236335344,10.58169206134558zM-63.23632236335344,10.58169206134558L-86.22258074457201,4.778460582519088L-86.22258074457201,-20.38162815810694z" style="fill:rgb(238,238,238); fill-opacity: 0.39"></path><path d="M-133.29107865330093,7.8906676155610045L-132.74019090358277,6.747827233345658L-93.37127623215503,15.185310076080698zM-132.74019090358277,6.747827233345658L-132.74019090358277,5.59363338465795L-93.37127623215503,15.185310076080698zM-133.29107865330093,6.736473766873295L-133.29107865330093,7.8906676155610045L-93.37127623215503,15.185310076080698zM-132.74019090358277,5.59363338465795L-133.29107865330093,6.736473766873295L-93.37127623215503,15.185310076080698z" style="fill:rgb(255,187,187); fill-opacity: 0.48"></path><path d="M-144.65099578335054,-6.986939141262726L-144.65099578335054,21.814004571228143M-144.65099578335054,21.814004571228143L-138.57893589714672,23.346988691067736" style="fill:none;stroke:rgb(0,0,0);stroke-width:1;stroke-linecap:round"></path><path d="M-130.90452928678008,-6.703632702587877L-144.65099578335054,21.814004571228146L-144.65099578335054,-6.986939141262725z" style="fill:rgb(238,238,238); fill-opacity: 0.39"></path><path d="M-138.57893589714672,-5.45395502142314L-138.57893589714672,23.346988691067736" style="fill:none;stroke:rgb(0,0,0);stroke-width:1;stroke-linecap:round"></path><path d="M-130.90452928678008,-35.50457641507875L-130.90452928678008,-6.703632702587877L-144.65099578335054,-6.986939141262725z" style="fill:rgb(238,238,238); fill-opacity: 0.39"></path><path d="M-124.83246940057624,-33.97159229523916L-130.90452928678008,-35.50457641507875M-130.90452928678008,-35.50457641507875L-144.65099578335054,-6.986939141262726M-124.83246940057624,-33.97159229523916L-138.57893589714672,-5.45395502142314M2.170959267780232,27.300827727189464L-24.646341925975555,20.530391065260474M-24.646341925975555,-0.9054187535037286L-24.646341925975555,20.530391065260474M-24.646341925975555,20.530391065260474L-34.877487281559944,41.755343107957025" style="fill:none;stroke:rgb(0,0,0);stroke-width:1;stroke-linecap:round"></path><path d="M-75.24503709077248,35.494288386132524L-98.23129547199105,29.69105690730603L-63.23632236335344,10.58169206134558zM-63.23632236335344,-14.578396679280452L-63.23632236335344,10.58169206134558L-86.22258074457201,-20.38162815810694zM-75.24503709077248,35.494288386132524L-63.23632236335344,10.58169206134558L-63.23632236335344,-14.578396679280452zM-144.65099578335054,21.814004571228146L-138.57893589714672,23.346988691067736L-138.57893589714672,-5.453955021423138z" style="fill:rgb(238,238,238); fill-opacity: 0.39"></path><path d="M-98.23129547199107,4.530968166680002L-98.23129547199107,29.69105690730603M-98.23129547199107,29.69105690730603L-75.24503709077248,35.494288386132524" style="fill:none;stroke:rgb(0,0,0);stroke-width:1;stroke-linecap:round"></path><path d="M-86.22258074457201,4.778460582519088L-98.23129547199105,29.69105690730603L-98.23129547199105,4.530968166680003zM-138.57893589714672,-5.453955021423138L-138.57893589714672,23.346988691067736L-124.83246940057624,-33.97159229523916z" style="fill:rgb(238,238,238); fill-opacity: 0.39"></path><path d="M2.170959267780232,5.865017908425267L2.170959267780232,27.300827727189464M2.170959267780232,27.300827727189464L-8.060186087804158,48.52577976988602" style="fill:none;stroke:rgb(0,0,0);stroke-width:1;stroke-linecap:round"></path><path d="M-86.22258074457201,-20.38162815810694L-86.22258074457201,4.778460582519088L-98.23129547199105,4.530968166680003zM-138.57893589714672,-5.453955021423138L-124.83246940057624,-33.97159229523916L-130.90452928678008,-35.50457641507875z" style="fill:rgb(238,238,238); fill-opacity: 0.39"></path><path d="M-63.23632236335344,-14.578396679280448L-86.22258074457204,-20.381628158106942M-86.22258074457204,-20.381628158106942L-98.23129547199107,4.530968166680002" style="fill:none;stroke:rgb(0,0,0);stroke-width:1;stroke-linecap:round"></path><path d="M-34.877487281559944,41.755343107957025L-24.646341925975555,20.530391065260474L2.170959267780232,27.300827727189468zM2.170959267780232,27.300827727189468L-24.646341925975555,20.530391065260474L-24.646341925975555,-0.9054187535037248z" style="fill:rgb(238,238,238); fill-opacity: 0.39"></path><path d="M-75.24503709077248,10.334199645506494L-75.24503709077248,35.494288386132524M-71.28730077178714,13.400493815898505L-94.27355915300573,7.597262337072013M-94.27355915300573,6.443068488384305L-94.27355915300573,7.597262337072013M-94.27355915300573,7.597262337072013L-94.82444690272389,8.74010271928736M-94.82444690272389,7.585908870599651L-94.82444690272389,8.74010271928736M-94.82444690272389,8.74010271928736L-71.8381885215053,14.543334198113854" style="fill:none;stroke:rgb(0,0,0);stroke-width:1;stroke-linecap:round"></path><path d="M-94.27355915300573,7.5972623370720145L-94.82444690272388,8.740102719287362L-94.82444690272388,7.585908870599655zM-94.27355915300573,6.443068488384308L-94.27355915300573,7.5972623370720145L-94.82444690272388,7.585908870599655z" style="fill:rgb(153,221,255); fill-opacity: 0.48"></path><path d="M-71.28730077178714,12.246299967210797L-94.27355915300573,6.443068488384305M-94.27355915300573,6.443068488384305L-94.82444690272389,7.585908870599651M-63.23632236335344,-14.578396679280448L-75.24503709077248,10.334199645506494" style="fill:none;stroke:rgb(0,0,0);stroke-width:1;stroke-linecap:round"></path><path d="M-94.82444690272388,8.740102719287362L-94.27355915300573,7.5972623370720145L-71.28730077178714,13.400493815898505zM-71.28730077178714,13.400493815898505L-94.27355915300573,7.5972623370720145L-94.27355915300573,6.443068488384308z" style="fill:rgb(153,221,255); fill-opacity: 0.48"></path><path d="M-94.82444690272389,7.585908870599651L-71.8381885215053,13.389140349426144" style="fill:none;stroke:rgb(0,0,0);stroke-width:1;stroke-linecap:round"></path><path d="M-144.65099578335054,-6.986939141262725L-144.65099578335054,21.814004571228146L-138.57893589714672,-5.453955021423138zM-144.65099578335054,-6.986939141262725L-138.57893589714672,-5.453955021423138L-130.90452928678008,-35.50457641507875z" style="fill:rgb(238,238,238); fill-opacity: 0.39"></path><path d="M-94.82444690272388,7.585908870599655L-94.82444690272388,8.740102719287362L-71.8381885215053,13.389140349426146zM-94.82444690272388,7.585908870599655L-71.8381885215053,13.389140349426146L-94.27355915300573,6.443068488384308zM-71.8381885215053,14.543334198113854L-94.82444690272388,8.740102719287362L-71.28730077178714,13.400493815898505zM-71.28730077178714,12.246299967210799L-71.28730077178714,13.400493815898505L-94.27355915300573,6.443068488384308zM-94.82444690272388,8.740102719287362L-71.8381885215053,14.543334198113854L-71.8381885215053,13.389140349426146zM-71.8381885215053,13.389140349426146L-71.28730077178714,12.246299967210799L-94.27355915300573,6.443068488384308z" style="fill:rgb(153,221,255); fill-opacity: 0.48"></path><path d="M-71.28730077178714,12.246299967210797L-71.28730077178714,13.400493815898505M-71.28730077178714,13.400493815898505L-71.8381885215053,14.543334198113854M-71.28729796867525,12.246300733247555L-71.28729796867525,13.40049471952589M-71.28729796867525,13.40049471952589L-71.83818571839339,14.543335101741237M-71.28729796867525,13.40049471952589L-31.740260758186203,22.927107626661435" style="fill:none;stroke:rgb(0,0,0);stroke-width:1;stroke-linecap:round"></path><path d="M-98.23129547199105,29.69105690730603L-75.24503709077248,35.494288386132524L-75.24503709077248,10.334199645506494zM-8.060186087804158,48.52577976988602L-34.877487281559944,41.755343107957025L2.170959267780232,27.300827727189468z" style="fill:rgb(238,238,238); fill-opacity: 0.39"></path><path d="M-71.8381885215053,14.543334198113854L-71.28730077178714,13.400493815898505L-71.28730077178714,12.246299967210799z" style="fill:rgb(153,221,255); fill-opacity: 0.48"></path><path d="M-71.28730042686954,12.24630005429051L-71.28730042686954,13.400493902978216L-71.83818817658769,14.543334285193563z" style="fill:rgb(255,187,187); fill-opacity: 0.48"></path><path d="M-71.8381885215053,13.389140349426144L-71.8381885215053,14.543334198113854M-71.83818571839339,14.543335101741237L-71.83818571839339,13.389141115462898M-71.83818571839339,14.543335101741237L-31.740260758186203,22.927107626661435M-71.28730077178714,12.246299967210797L-71.8381885215053,13.389140349426144M-71.28729796867525,12.246300733247555L-71.83818571839339,13.389141115462898M-71.28729796867525,12.246300733247555L-31.740260758186203,22.927107626661435" style="fill:none;stroke:rgb(0,0,0);stroke-width:1;stroke-linecap:round"></path><path d="M-71.8381885215053,13.389140349426146L-71.8381885215053,14.543334198113854L-71.28730077178714,12.246299967210799z" style="fill:rgb(153,221,255); fill-opacity: 0.48"></path><path d="M-71.28730042686954,12.24630005429051L-71.83818817658769,14.543334285193563L-71.83818817658769,13.389140436505855z" style="fill:rgb(255,187,187); fill-opacity: 0.48"></path><path d="M-75.24503709077248,10.334199645506494L-63.23632236335344,-14.578396679280452L-86.22258074457201,-20.38162815810694zM2.170959267780232,5.865017908425267L2.170959267780232,27.300827727189468L-24.646341925975555,-0.9054187535037248z" style="fill:rgb(238,238,238); fill-opacity: 0.39"></path><path d="M-71.83818571839339,13.389141115462898L-31.740260758186203,22.927107626661435M71.39827233960852,44.98694189779896L40.749926827320195,37.24929967255596M40.749926827320195,19.58391447107152L40.749926827320195,37.24929967255596M40.749926827320195,37.24929967255596L32.3183758251945,54.740915659419805" style="fill:none;stroke:rgb(0,0,0);stroke-width:1;stroke-linecap:round"></path><path d="M-75.24503709077248,10.334199645506494L-75.24503709077248,35.494288386132524L-63.23632236335344,-14.578396679280452z" style="fill:rgb(238,238,238); fill-opacity: 0.39"></path><path d="M-34.877487281559944,20.319533289192822L-34.877487281559944,41.755343107957025M-34.877487281559944,41.755343107957025L-8.060186087804158,48.52577976988602" style="fill:none;stroke:rgb(0,0,0);stroke-width:1;stroke-linecap:round"></path><path d="M-8.060186087804158,48.52577976988602L2.170959267780232,27.300827727189468L2.170959267780232,5.865017908425267z" style="fill:rgb(238,238,238); fill-opacity: 0.39"></path><path d="M-71.83818817658769,14.543334285193563L-71.28730042686954,13.400493902978216L-31.74026027046834,22.927107815427373zM-71.28730042686954,13.400493902978216L-71.28730042686954,12.24630005429051L-31.74026027046834,22.927107815427373z" style="fill:rgb(255,187,187); fill-opacity: 0.48"></path><path d="M-24.646341925975555,20.530391065260474L-34.877487281559944,41.755343107957025L-34.877487281559944,20.319533289192822z" style="fill:rgb(238,238,238); fill-opacity: 0.39"></path><path d="M-3.863433209444543,30.76441745671446L-30.68073440320033,23.99398079478547M-30.68073440320033,22.839786946097764L-30.68073440320033,23.99398079478547M-30.68073440320033,23.99398079478547L-31.231622152918483,25.13682117700082" style="fill:none;stroke:rgb(0,0,0);stroke-width:1;stroke-linecap:round"></path><path d="M-71.83818817658769,13.389140436505855L-71.83818817658769,14.543334285193563L-31.74026027046834,22.927107815427373zM-71.28730042686954,12.24630005429051L-71.83818817658769,13.389140436505855L-31.74026027046834,22.927107815427373z" style="fill:rgb(255,187,187); fill-opacity: 0.48"></path><path d="M-24.646341925975555,-0.9054187535037248L-24.646341925975555,20.530391065260474L-34.877487281559944,20.319533289192822z" style="fill:rgb(238,238,238); fill-opacity: 0.39"></path><path d="M2.170959267780232,5.865017908425267L-24.646341925975555,-0.9054187535037286M-24.646341925975555,-0.9054187535037286L-34.877487281559944,20.319533289192822M-31.231622152918483,23.98262732831311L-31.231622152918483,25.13682117700082M-31.231622152918483,25.13682117700082L-4.4143209591626995,31.90725783892981" style="fill:none;stroke:rgb(0,0,0);stroke-width:1;stroke-linecap:round"></path><path d="M-30.68073440320033,23.99398079478547L-31.231622152918483,25.13682117700082L-31.231622152918483,23.982627328313107zM-30.68073440320033,22.83978694609776L-30.68073440320033,23.99398079478547L-31.231622152918483,23.982627328313107z" style="fill:rgb(153,221,255); fill-opacity: 0.48"></path><path d="M-3.863433209444543,29.610223608026754L-30.68073440320033,22.839786946097764M-30.68073440320033,22.839786946097764L-31.231622152918483,23.98262732831311M-31.231622152918483,23.98262732831311L-4.4143209591626995,30.7530639902421" style="fill:none;stroke:rgb(0,0,0);stroke-width:1;stroke-linecap:round"></path><path d="M-31.231622152918483,25.13682117700082L-30.68073440320033,23.99398079478547L-3.863433209444543,30.76441745671446zM-3.863433209444543,30.76441745671446L-30.68073440320033,23.99398079478547L-30.68073440320033,22.83978694609776z" style="fill:rgb(153,221,255); fill-opacity: 0.48"></path><path d="M-144.65099578335054,-6.986939141262726L-138.57893589714672,-5.45395502142314" style="fill:none;stroke:rgb(0,0,0);stroke-width:1;stroke-linecap:round"></path><path d="M-98.23129547199105,4.530968166680003L-98.23129547199105,29.69105690730603L-75.24503709077248,10.334199645506494zM-98.23129547199105,4.530968166680003L-75.24503709077248,10.334199645506494L-86.22258074457201,-20.38162815810694z" style="fill:rgb(238,238,238); fill-opacity: 0.39"></path><path d="M-31.231622152918483,23.982627328313107L-31.231622152918483,25.13682117700082L-4.4143209591626995,30.7530639902421zM-31.231622152918483,23.982627328313107L-4.4143209591626995,30.7530639902421L-30.68073440320033,22.83978694609776zM-4.4143209591626995,31.90725783892981L-31.231622152918483,25.13682117700082L-3.863433209444543,30.76441745671446zM-3.863433209444546,29.610223608026754L-3.863433209444543,30.76441745671446L-30.68073440320033,22.83978694609776z" style="fill:rgb(153,221,255); fill-opacity: 0.48"></path><path d="M-8.06018608780416,27.089969951121812L-8.060186087804158,48.52577976988602M71.39827233960852,27.3215566963145L71.39827233960852,44.98694189779896M71.39827233960852,44.98694189779896L62.966721337482824,62.47855788466279" style="fill:none;stroke:rgb(0,0,0);stroke-width:1;stroke-linecap:round"></path><path d="M-31.231622152918483,25.13682117700082L-4.4143209591626995,31.90725783892981L-4.4143209591626995,30.7530639902421zM-4.4143209591626995,30.7530639902421L-3.863433209444546,29.610223608026754L-30.68073440320033,22.83978694609776z" style="fill:rgb(153,221,255); fill-opacity: 0.48"></path><path d="M32.318375825194494,54.740915659419805L40.749926827320174,37.24929967255596L71.39827233960852,44.986941897798964z" style="fill:rgb(238,238,238); fill-opacity: 0.39"></path><path d="M-3.863433209444543,29.610223608026754L-3.863433209444543,30.76441745671446M-3.863433209444543,30.76441745671446L-4.4143209591626995,31.90725783892981M-3.8634327445401837,29.610223772621357L-3.8634327445401837,30.764417586911406M-3.8634327445401837,30.764417586911406L-4.414320494258338,31.907257969126753M-3.8634327445401837,30.764417586911406L35.549952602889604,40.09898791882279" style="fill:none;stroke:rgb(0,0,0);stroke-width:1;stroke-linecap:round"></path><path d="M71.39827233960852,44.986941897798964L40.749926827320174,37.24929967255596L40.749926827320174,19.58391447107152z" style="fill:rgb(238,238,238); fill-opacity: 0.39"></path><path d="M-4.4143209591626995,31.90725783892981L-3.863433209444543,30.76441745671446L-3.863433209444546,29.610223608026754z" style="fill:rgb(153,221,255); fill-opacity: 0.48"></path><path d="M-3.863432681541056,29.61022374130404L-3.863432681541056,30.764417589991744L-4.414320431259212,31.907257972207095z" style="fill:rgb(255,187,187); fill-opacity: 0.48"></path><path d="M2.170959267780232,5.865017908425267L-8.06018608780416,27.089969951121812M-4.4143209591626995,30.7530639902421L-4.4143209591626995,31.90725783892981M-4.414320494258338,31.907257969126753L-4.414320494258338,30.753064154836704M-4.414320494258338,31.907257969126753L35.549952602889604,40.09898791882279M-3.863433209444543,29.610223608026754L-4.4143209591626995,30.7530639902421M-3.8634327445401837,29.610223772621357L-4.414320494258338,30.753064154836704M-3.8634327445401837,29.610223772621357L35.549952602889604,40.09898791882279" style="fill:none;stroke:rgb(0,0,0);stroke-width:1;stroke-linecap:round"></path><path d="M-4.4143209591626995,30.7530639902421L-4.4143209591626995,31.90725783892981L-3.863433209444546,29.610223608026754z" style="fill:rgb(153,221,255); fill-opacity: 0.48"></path><path d="M-3.863432681541056,29.61022374130404L-4.414320431259212,31.907257972207095L-4.414320431259212,30.753064123519387z" style="fill:rgb(255,187,187); fill-opacity: 0.48"></path><path d="M-4.414320494258338,30.753064154836704L35.549952602889604,40.09898791882279M-98.23129547199107,4.530968166680002L-75.24503709077248,10.334199645506494" style="fill:none;stroke:rgb(0,0,0);stroke-width:1;stroke-linecap:round"></path><path d="M-4.414320431259212,31.907257972207095L-3.863432681541056,30.764417589991744L35.54995116961911,40.098987514816606zM-3.863432681541056,30.764417589991744L-3.863432681541056,29.61022374130404L35.54995116961911,40.098987514816606z" style="fill:rgb(255,187,187); fill-opacity: 0.48"></path><path d="M-34.877487281559944,41.755343107957025L-8.060186087804158,48.52577976988602L-8.06018608780416,27.089969951121812z" style="fill:rgb(238,238,238); fill-opacity: 0.39"></path><path d="M-4.414320431259212,30.753064123519387L-4.414320431259212,31.907257972207095L35.54995116961911,40.098987514816606zM-3.863432681541056,29.61022374130404L-4.414320431259212,30.753064123519387L35.54995116961911,40.098987514816606z" style="fill:rgb(255,187,187); fill-opacity: 0.48"></path><path d="M-8.06018608780416,27.089969951121812L2.170959267780232,5.865017908425267L-24.646341925975555,-0.9054187535037248zM-8.06018608780416,27.089969951121812L-8.060186087804158,48.52577976988602L2.170959267780232,5.865017908425267zM62.966721337482824,62.47855788466279L32.318375825194494,54.740915659419805L71.39827233960852,44.986941897798964z" style="fill:rgb(238,238,238); fill-opacity: 0.39"></path><path d="M69.99005051151164,34.75717237534506L39.34170499922331,27.019530150102064M39.34170499922331,25.865336301414356L39.34170499922331,27.019530150102064M39.34170499922331,27.019530150102064L38.79081724950515,28.16237053231741M32.3183758251945,37.07553045793536L32.3183758251945,54.740915659419805M32.3183758251945,54.740915659419805L62.966721337482824,62.47855788466279" style="fill:none;stroke:rgb(0,0,0);stroke-width:1;stroke-linecap:round"></path><path d="M71.39827233960852,27.321556696314502L71.39827233960852,44.986941897798964L40.749926827320174,19.58391447107152zM40.749926827320174,37.24929967255596L32.318375825194494,54.740915659419805L32.318375825194494,37.07553045793536zM-34.877487281559944,20.319533289192822L-34.877487281559944,41.755343107957025L-8.06018608780416,27.089969951121812z" style="fill:rgb(238,238,238); fill-opacity: 0.39"></path><path d="M38.79081724950515,27.008176683629703L38.79081724950515,28.16237053231741M38.79081724950515,28.16237053231741L69.43916276179348,35.900012757560404" style="fill:none;stroke:rgb(0,0,0);stroke-width:1;stroke-linecap:round"></path><path d="M39.341704999223296,27.019530150102064L38.790817249505146,28.16237053231741L38.790817249505146,27.008176683629703zM39.341704999223296,25.865336301414356L39.341704999223296,27.019530150102064L38.790817249505146,27.008176683629703z" style="fill:rgb(153,221,255); fill-opacity: 0.48"></path><path d="M69.99005051151164,33.602978526657346L39.34170499922331,25.865336301414356M39.34170499922331,25.865336301414356L38.79081724950515,27.008176683629703" style="fill:none;stroke:rgb(0,0,0);stroke-width:1;stroke-linecap:round"></path><path d="M40.749926827320174,19.58391447107152L40.749926827320174,37.24929967255596L32.318375825194494,37.07553045793536zM-34.877487281559944,20.319533289192822L-8.06018608780416,27.089969951121812L-24.646341925975555,-0.9054187535037248z" style="fill:rgb(238,238,238); fill-opacity: 0.39"></path><path d="M71.39827233960852,27.3215566963145L40.749926827320195,19.58391447107152M40.749926827320195,19.58391447107152L32.3183758251945,37.07553045793536M38.79081724950515,27.008176683629703L69.43916276179348,34.74581890887269" style="fill:none;stroke:rgb(0,0,0);stroke-width:1;stroke-linecap:round"></path><path d="M62.966721337482824,62.47855788466279L71.39827233960852,44.986941897798964L71.39827233960852,27.321556696314502z" style="fill:rgb(238,238,238); fill-opacity: 0.39"></path><path d="M38.790817249505146,28.16237053231741L39.341704999223296,27.019530150102064L69.99005051151164,34.75717237534506zM69.99005051151164,34.75717237534506L39.341704999223296,27.019530150102064L39.341704999223296,25.865336301414356z" style="fill:rgb(153,221,255); fill-opacity: 0.48"></path><path d="M144.41175511314432,63.63933652843393L109.93236528232346,54.934488739876954M109.93236528232346,41.22756171031185L109.93236528232346,54.934488739876954M109.93236528232346,54.934488739876954L103.39015558725936,68.50658474721283" style="fill:none;stroke:rgb(0,0,0);stroke-width:1;stroke-linecap:round"></path><path d="M38.790817249505146,27.008176683629703L38.790817249505146,28.16237053231741L69.43916276179348,34.74581890887269zM38.790817249505146,27.008176683629703L69.43916276179348,34.74581890887269L39.341704999223296,25.865336301414356zM69.43916276179348,35.900012757560404L38.790817249505146,28.16237053231741L69.99005051151164,34.75717237534506zM69.99005051151164,33.602978526657346L69.99005051151164,34.75717237534506L39.341704999223296,25.865336301414356zM38.790817249505146,28.16237053231741L69.43916276179348,35.900012757560404L69.43916276179348,34.74581890887269z" style="fill:rgb(153,221,255); fill-opacity: 0.48"></path><path d="M-34.877487281559944,20.319533289192822L-8.06018608780416,27.089969951121812" style="fill:none;stroke:rgb(0,0,0);stroke-width:1;stroke-linecap:round"></path><path d="M69.43916276179348,34.74581890887269L69.99005051151164,33.602978526657346L39.341704999223296,25.865336301414356z" style="fill:rgb(153,221,255); fill-opacity: 0.48"></path><path d="M69.99004899200578,33.60297819327586L69.99004899200578,34.75717204196357M69.99004899200578,34.75717204196357L69.43916124228762,35.90001242417892M69.99004899200578,34.75717204196357L108.62597443976959,46.992600125269945M69.99005051151164,33.602978526657346L69.99005051151164,34.75717237534506M69.99005051151164,34.75717237534506L69.43916276179348,35.900012757560404M62.966721337482824,44.81317268317835L62.966721337482824,62.47855788466279" style="fill:none;stroke:rgb(0,0,0);stroke-width:1;stroke-linecap:round"></path><path d="M69.99005046940333,33.602978516026454L69.99005046940333,34.757172364714165L69.43916271968517,35.90001274692952z" style="fill:rgb(255,187,187); fill-opacity: 0.48"></path><path d="M69.43916276179348,35.900012757560404L69.99005051151164,34.75717237534506L69.99005051151164,33.602978526657346z" style="fill:rgb(153,221,255); fill-opacity: 0.48"></path><path d="M69.43916124228762,35.90001242417892L69.43916124228762,34.745818575491214M69.43916124228762,35.90001242417892L108.62597443976959,46.992600125269945M69.43916276179348,34.74581890887269L69.43916276179348,35.900012757560404M69.99004899200578,33.60297819327586L69.43916124228762,34.745818575491214M69.99004899200578,33.60297819327586L108.62597443976959,46.992600125269945M69.99005051151164,33.602978526657346L69.43916276179348,34.74581890887269" style="fill:none;stroke:rgb(0,0,0);stroke-width:1;stroke-linecap:round"></path><path d="M69.99005046940333,33.602978516026454L69.43916271968517,35.90001274692952L69.43916271968517,34.74581889824181z" style="fill:rgb(255,187,187); fill-opacity: 0.48"></path><path d="M69.43916276179348,34.74581890887269L69.43916276179348,35.900012757560404L69.99005051151164,33.602978526657346z" style="fill:rgb(153,221,255); fill-opacity: 0.48"></path><path d="M71.39827233960852,27.3215566963145L62.966721337482824,44.81317268317835M69.43916124228762,34.745818575491214L108.62597443976959,46.992600125269945" style="fill:none;stroke:rgb(0,0,0);stroke-width:1;stroke-linecap:round"></path><path d="M32.318375825194494,54.740915659419805L62.966721337482824,62.47855788466279L62.966721337482824,44.81317268317835z" style="fill:rgb(238,238,238); fill-opacity: 0.39"></path><path d="M69.43916271968517,35.90001274692952L69.99005046940333,34.757172364714165L108.6259758729646,46.99260066154468zM69.99005046940333,34.757172364714165L69.99005046940333,33.602978516026454L108.6259758729646,46.99260066154468z" style="fill:rgb(255,187,187); fill-opacity: 0.48"></path><path d="M103.39015558725936,68.50658474721283L109.93236528232345,54.93448873987695L144.41175511314432,63.63933652843393zM144.41175511314432,63.63933652843393L109.93236528232345,54.93448873987695L109.93236528232345,41.227561710311846z" style="fill:rgb(238,238,238); fill-opacity: 0.39"></path><path d="M69.43916271968517,34.74581889824181L69.43916271968517,35.90001274692952L108.6259758729646,46.99260066154468zM69.99005046940333,33.602978516026454L69.43916271968517,34.74581889824181L108.6259758729646,46.99260066154468z" style="fill:rgb(255,187,187); fill-opacity: 0.48"></path><path d="M62.966721337482824,44.81317268317835L71.39827233960852,27.321556696314502L40.749926827320174,19.58391447107152z" style="fill:rgb(238,238,238); fill-opacity: 0.39"></path><path d="M144.41175511314432,49.93240949886883L144.41175511314432,63.63933652843393M144.41175511314432,63.63933652843393L137.86954541808024,77.21143253576979" style="fill:none;stroke:rgb(0,0,0);stroke-width:1;stroke-linecap:round"></path><path d="M62.966721337482824,44.81317268317835L62.966721337482824,62.47855788466279L71.39827233960852,27.321556696314502zM32.318375825194494,37.07553045793536L32.318375825194494,54.740915659419805L62.966721337482824,44.81317268317835zM32.318375825194494,37.07553045793536L62.966721337482824,44.81317268317835L40.749926827320174,19.58391447107152z" style="fill:rgb(238,238,238); fill-opacity: 0.39"></path><path d="M103.39015558725936,54.79965771764771L103.39015558725936,68.50658474721283M103.39015558725936,68.50658474721283L137.86954541808024,77.21143253576979" style="fill:none;stroke:rgb(0,0,0);stroke-width:1;stroke-linecap:round"></path><path d="M109.93236528232345,54.93448873987695L103.39015558725936,68.50658474721283L103.39015558725936,54.799657717647705zM109.93236528232345,41.227561710311846L109.93236528232345,54.93448873987695L103.39015558725936,54.799657717647705zM137.86954541808024,77.21143253576979L103.39015558725936,68.50658474721283L144.41175511314432,63.63933652843393z" style="fill:rgb(238,238,238); fill-opacity: 0.39"></path><path d="M144.41175511314432,49.93240949886883L109.93236528232346,41.22756171031185M109.93236528232346,41.22756171031185L103.39015558725936,54.79965771764771M32.3183758251945,37.07553045793536L62.966721337482824,44.81317268317835" style="fill:none;stroke:rgb(0,0,0);stroke-width:1;stroke-linecap:round"></path><path d="M144.41175511314432,49.93240949886883L144.41175511314432,63.63933652843393L109.93236528232345,41.227561710311846zM137.86954541808024,77.21143253576979L144.41175511314432,63.63933652843393L144.41175511314432,49.93240949886883z" style="fill:rgb(238,238,238); fill-opacity: 0.39"></path><path d="M140.67398394388064,59.70098190980042L106.1945941130598,50.99613412124346M106.1945941130598,49.84194027255575L106.1945941130598,50.99613412124346M106.1945941130598,50.99613412124346L105.64370636334162,52.1389745034588M105.64370636334162,50.9847806547711L105.64370636334162,52.1389745034588M105.64370636334162,52.1389745034588L140.12309619416249,60.843822292015766" style="fill:none;stroke:rgb(0,0,0);stroke-width:1;stroke-linecap:round"></path><path d="M106.19459411305976,50.99613412124346L105.64370636334161,52.1389745034588L105.64370636334161,50.98478065477109zM106.19459411305976,49.84194027255575L106.19459411305976,50.99613412124346L105.64370636334161,50.98478065477109z" style="fill:rgb(153,221,255); fill-opacity: 0.48"></path><path d="M140.67398394388064,58.546788061112714L106.1945941130598,49.84194027255575M106.1945941130598,49.84194027255575L105.64370636334162,50.9847806547711M137.86954541808024,63.50450550620469L137.86954541808024,77.21143253576979M105.64370636334162,50.9847806547711L140.12309619416249,59.68962844332806M221.1507266617259,83.2567606723774L182.8402955243631,73.5847080809294M182.8402955243631,64.27853805832177L182.8402955243631,73.5847080809294M182.8402955243631,73.5847080809294L178.39853293129633,82.79933603765451M144.41175511314432,49.93240949886883L137.86954541808024,63.50450550620469" style="fill:none;stroke:rgb(0,0,0);stroke-width:1;stroke-linecap:round"></path><path d="M105.64370636334161,52.1389745034588L106.19459411305976,50.99613412124346L140.67398394388061,59.70098190980042zM140.67398394388061,59.70098190980042L106.19459411305976,50.99613412124346L106.19459411305976,49.84194027255575z" style="fill:rgb(153,221,255); fill-opacity: 0.48"></path><path d="M103.39015558725936,68.50658474721283L137.86954541808024,77.21143253576979L137.86954541808024,63.50450550620469zM137.86954541808024,63.50450550620469L144.41175511314432,49.93240949886883L109.93236528232345,41.227561710311846z" style="fill:rgb(238,238,238); fill-opacity: 0.39"></path><path d="M105.64370636334161,50.98478065477109L105.64370636334161,52.1389745034588L140.12309619416246,59.68962844332806zM105.64370636334161,50.98478065477109L140.12309619416246,59.68962844332806L106.19459411305976,49.84194027255575z" style="fill:rgb(153,221,255); fill-opacity: 0.48"></path><path d="M103.39015558725936,54.799657717647705L103.39015558725936,68.50658474721283L137.86954541808024,63.50450550620469zM103.39015558725936,54.799657717647705L137.86954541808024,63.50450550620469L109.93236528232345,41.227561710311846z" style="fill:rgb(238,238,238); fill-opacity: 0.39"></path><path d="M140.12309619416246,60.843822292015766L105.64370636334161,52.1389745034588L140.67398394388061,59.70098190980042zM140.67398394388061,58.546788061112714L140.67398394388061,59.70098190980042L106.19459411305976,49.84194027255575z" style="fill:rgb(153,221,255); fill-opacity: 0.48"></path><path d="M137.86954541808024,63.50450550620469L137.86954541808024,77.21143253576979L144.41175511314432,49.93240949886883z" style="fill:rgb(238,238,238); fill-opacity: 0.39"></path><path d="M105.64370636334161,52.1389745034588L140.12309619416246,60.843822292015766L140.12309619416246,59.68962844332806zM140.12309619416246,59.68962844332806L140.67398394388061,58.546788061112714L106.19459411305976,49.84194027255575z" style="fill:rgb(153,221,255); fill-opacity: 0.48"></path><path d="M266.656204518029,114.49956867037957L261.73057756069693,113.25601902703693M261.73057756069693,70.77883759953258L261.73057756069693,113.25601902703693M261.73057756069693,113.25601902703693L260.01226924862567,116.82072368626393M103.39015558725936,54.79965771764771L137.86954541808024,63.50450550620469M140.67398309202403,58.54678778062605L140.67398309202403,59.700981629313766M140.67398309202403,59.700981629313766L140.12309530947041,60.843822079647694M140.67398309202403,59.700981629313766L180.1155659682496,70.90695039208599M140.67398394388064,58.546788061112714L140.67398394388064,59.70098190980042M140.67398394388064,59.70098190980042L140.12309619416249,60.843822292015766M266.656204518029,72.0223872428752L266.656204518029,114.49956867037957M266.656204518029,114.49956867037957L264.9378962059577,118.06427332960655" style="fill:none;stroke:rgb(0,0,0);stroke-width:1;stroke-linecap:round"></path><path d="M178.39853293129636,82.79933603765451L182.84029552436317,73.58470808092939L221.1507266617259,83.25676067237738zM260.01226924862567,116.82072368626393L261.73057756069693,113.25601902703693L266.656204518029,114.49956867037956zM221.1507266617259,83.25676067237738L182.84029552436317,73.58470808092939L182.84029552436317,64.27853805832177z" style="fill:rgb(238,238,238); fill-opacity: 0.39"></path><path d="M140.67398333176055,58.54678790657366L140.67398333176055,59.70098175526137L140.1230955820424,60.84382213747672z" style="fill:rgb(255,187,187); fill-opacity: 0.48"></path><path d="M140.12309619416246,60.843822292015766L140.67398394388061,59.70098190980042L140.67398394388061,58.546788061112714z" style="fill:rgb(153,221,255); fill-opacity: 0.48"></path><path d="M140.12309530947041,60.843822079647694L140.12309530947041,59.68962823095999M140.12309530947041,60.843822079647694L180.1155659682496,70.90695039208599M140.12309619416249,59.68962844332806L140.12309619416249,60.843822292015766M140.67398309202403,58.54678778062605L140.12309530947041,59.68962823095999M140.67398309202403,58.54678778062605L180.1155659682496,70.90695039208599M140.67398394388064,58.546788061112714L140.12309619416249,59.68962844332806" style="fill:none;stroke:rgb(0,0,0);stroke-width:1;stroke-linecap:round"></path><path d="M140.67398333176055,58.54678790657366L140.1230955820424,60.84382213747672L140.1230955820424,59.68962828878902z" style="fill:rgb(255,187,187); fill-opacity: 0.48"></path><path d="M140.12309619416246,59.68962844332806L140.12309619416246,60.843822292015766L140.67398394388061,58.546788061112714z" style="fill:rgb(153,221,255); fill-opacity: 0.48"></path><path d="M264.9378962059577,118.06427332960655L260.01226924862567,116.82072368626393L266.656204518029,114.49956867037956z" style="fill:rgb(238,238,238); fill-opacity: 0.39"></path><path d="M260.01226924862567,74.34354225875957L260.01226924862567,116.82072368626393M260.01226924862567,116.82072368626393L264.9378962059577,118.06427332960655M140.12309530947041,59.68962823095999L180.1155659682496,70.90695039208599M178.39853293129633,73.49316601504688L178.39853293129633,82.79933603765451M178.39853293129633,82.79933603765451L216.7089640686591,92.4713886291025" style="fill:none;stroke:rgb(0,0,0);stroke-width:1;stroke-linecap:round"></path><path d="M140.1230955820424,60.84382213747672L140.67398333176055,59.70098175526137L180.11556620159524,70.90695051284698zM140.67398333176055,59.70098175526137L140.67398333176055,58.54678790657366L180.11556620159524,70.90695051284698z" style="fill:rgb(255,187,187); fill-opacity: 0.48"></path><path d="M182.84029552436317,73.58470808092939L178.39853293129636,82.79933603765451L178.39853293129636,73.49316601504688z" style="fill:rgb(238,238,238); fill-opacity: 0.39"></path><path d="M264.9378962059577,75.5870919021022L264.9378962059577,118.06427332960655M221.1507266617259,73.95059064976977L221.1507266617259,83.2567606723774M221.1507266617259,83.2567606723774L216.7089640686591,92.4713886291025" style="fill:none;stroke:rgb(0,0,0);stroke-width:1;stroke-linecap:round"></path><path d="M182.84029552436317,64.27853805832177L182.84029552436317,73.58470808092939L178.39853293129636,73.49316601504688z" style="fill:rgb(238,238,238); fill-opacity: 0.39"></path><path d="M140.1230955820424,59.68962828878902L140.1230955820424,60.84382213747672L180.11556620159524,70.90695051284698zM140.67398333176055,58.54678790657366L140.1230955820424,59.68962828878902L180.11556620159524,70.90695051284698z" style="fill:rgb(255,187,187); fill-opacity: 0.48"></path><path d="M221.1507266617259,73.95059064976977L182.8402955243631,64.27853805832177M182.8402955243631,64.27853805832177L178.39853293129633,73.49316601504688" style="fill:none;stroke:rgb(0,0,0);stroke-width:1;stroke-linecap:round"></path><path d="M216.7089640686591,92.4713886291025L178.39853293129636,82.79933603765451L221.1507266617259,83.25676067237738zM221.1507266617259,73.95059064976977L221.1507266617259,83.25676067237738L182.84029552436317,64.27853805832177zM216.7089640686591,92.4713886291025L221.1507266617259,83.25676067237738L221.1507266617259,73.95059064976977z" style="fill:rgb(238,238,238); fill-opacity: 0.39"></path><path d="M216.7089640686591,83.16521860649486L216.7089640686591,92.4713886291025" style="fill:none;stroke:rgb(0,0,0);stroke-width:1;stroke-linecap:round"></path><path d="M178.39853293129636,82.79933603765451L216.7089640686591,92.4713886291025L216.7089640686591,83.16521860649486zM178.39853293129636,73.49316601504688L178.39853293129636,82.79933603765451L216.7089640686591,83.16521860649486z" style="fill:rgb(238,238,238); fill-opacity: 0.39"></path><path d="M178.39853293129633,73.49316601504688L216.7089640686591,83.16521860649486" style="fill:none;stroke:rgb(0,0,0);stroke-width:1;stroke-linecap:round"></path><path d="M178.39853293129636,73.49316601504688L216.7089640686591,83.16521860649486L182.84029552436317,64.27853805832177zM216.7089640686591,83.16521860649486L221.1507266617259,73.95059064976977L182.84029552436317,64.27853805832177z" style="fill:rgb(238,238,238); fill-opacity: 0.39"></path><path d="M221.1507266617259,73.95059064976977L216.7089640686591,83.16521860649486M221.78744680345937,83.93243470219761L247.3170476854326,90.37777178242447" style="fill:none;stroke:rgb(0,0,0);stroke-width:1;stroke-linecap:round"></path><path d="M266.656204518029,114.49956867037956L261.73057756069693,113.25601902703693L261.73057756069693,70.77883759953258zM216.7089640686591,83.16521860649486L216.7089640686591,92.4713886291025L221.1507266617259,73.95059064976977zM261.73057756069693,113.25601902703693L260.01226924862567,116.82072368626393L260.01226924862567,74.34354225875958zM264.9378962059577,118.06427332960655L266.656204518029,114.49956867037956L266.656204518029,72.0223872428752z" style="fill:rgb(238,238,238); fill-opacity: 0.39"></path><path d="M311.06059571230037,118.4720021739428L306.1349687549683,117.22845253060018M306.1349687549683,89.22753558270769L306.1349687549683,117.22845253060018M306.1349687549683,117.22845253060018L304.416660442897,120.79315718982718" style="fill:none;stroke:rgb(0,0,0);stroke-width:1;stroke-linecap:round"></path><path d="M260.01226924862567,116.82072368626393L264.9378962059577,118.06427332960655L264.9378962059577,75.5870919021022z" style="fill:rgb(238,238,238); fill-opacity: 0.39"></path><path d="M311.06059571230037,90.4710852260503L311.06059571230037,118.4720021739428M311.06059571230037,118.4720021739428L309.34228740022905,122.0367068331698" style="fill:none;stroke:rgb(0,0,0);stroke-width:1;stroke-linecap:round"></path><path d="M304.41666044289707,120.79315718982718L306.1349687549683,117.22845253060018L311.0605957123004,118.4720021739428zM309.3422874002291,122.0367068331698L304.41666044289707,120.79315718982718L311.0605957123004,118.4720021739428z" style="fill:rgb(238,238,238); fill-opacity: 0.39"></path><path d="M304.416660442897,92.79224024193469L304.416660442897,120.79315718982718M304.416660442897,120.79315718982718L309.34228740022905,122.0367068331698" style="fill:none;stroke:rgb(0,0,0);stroke-width:1;stroke-linecap:round"></path><path d="M247.51942499191887,89.37432980694675L247.11467037894624,90.21401069807153L260.476635768924,93.70011048357237zM247.11467037894624,90.21401069807153L246.98959431219373,91.28000387193501L260.476635768924,93.70011048357237z" style="fill:rgb(0,0,0)"></path><path d="M309.34228740022905,94.03578988527731L309.34228740022905,122.0367068331698M266.19183799773066,95.14300044556678L291.72143887970395,101.58833752579366" style="fill:none;stroke:rgb(0,0,0);stroke-width:1;stroke-linecap:round"></path><path d="M311.0605957123004,118.4720021739428L306.1349687549683,117.22845253060018L306.1349687549683,89.22753558270769zM306.1349687549683,117.22845253060018L304.41666044289707,120.79315718982718L304.41666044289707,92.79224024193469zM309.3422874002291,122.0367068331698L311.0605957123004,118.4720021739428L311.0605957123004,90.4710852260503zM266.656204518029,72.0223872428752L266.656204518029,114.49956867037956L261.73057756069693,70.77883759953258zM261.73057756069693,70.77883759953258L261.73057756069693,113.25601902703693L260.01226924862567,74.34354225875958zM304.41666044289707,120.79315718982718L309.3422874002291,122.0367068331698L309.3422874002291,94.03578988527731z" style="fill:rgb(238,238,238); fill-opacity: 0.39"></path><path d="M291.92381618619027,100.58489555031592L291.51906157321764,101.4245764414407L304.8810269631954,104.91067622694153zM291.51906157321764,101.4245764414407L291.3939855064651,102.49056961530418L304.8810269631954,104.91067622694153z" style="fill:rgb(0,0,0)"></path><path d="M264.9378962059577,75.5870919021022L264.9378962059577,118.06427332960655L266.656204518029,72.0223872428752z" style="fill:rgb(238,238,238); fill-opacity: 0.39"></path><path d="M355.46498690657177,125.48243015498309L350.53935994923967,124.23888051164047M350.53935994923967,104.63823908840574L350.53935994923967,124.23888051164047M350.53935994923967,124.23888051164047L348.82105163716847,127.80358517086748" style="fill:none;stroke:rgb(0,0,0);stroke-width:1;stroke-linecap:round"></path><path d="M260.01226924862567,74.34354225875958L260.01226924862567,116.82072368626393L264.9378962059577,75.5870919021022z" style="fill:rgb(238,238,238); fill-opacity: 0.39"></path><path d="M355.46498690657177,105.88178873174836L355.46498690657177,125.48243015498309M355.46498690657177,125.48243015498309L353.7466785945005,129.0471348142101" style="fill:none;stroke:rgb(0,0,0);stroke-width:1;stroke-linecap:round"></path><path d="M348.82105163716835,127.80358517086748L350.53935994923967,124.23888051164047L355.46498690657177,125.48243015498309z" style="fill:rgb(238,238,238); fill-opacity: 0.39"></path><path d="M310.59622919200206,106.35356618893596L336.1258300739753,112.79890326916282" style="fill:none;stroke:rgb(0,0,0);stroke-width:1;stroke-linecap:round"></path><path d="M353.7466785945004,129.0471348142101L348.82105163716835,127.80358517086748L355.46498690657177,125.48243015498309z" style="fill:rgb(238,238,238); fill-opacity: 0.39"></path><path d="M348.82105163716847,108.20294374763273L348.82105163716847,127.80358517086748M348.82105163716847,127.80358517086748L353.7466785945005,129.0471348142101M353.7466785945005,109.44649339097536L353.7466785945005,129.0471348142101" style="fill:none;stroke:rgb(0,0,0);stroke-width:1;stroke-linecap:round"></path><path d="M311.0605957123004,90.4710852260503L311.0605957123004,118.4720021739428L306.1349687549683,89.22753558270769zM306.1349687549683,89.22753558270769L306.1349687549683,117.22845253060018L304.41666044289707,92.79224024193469zM355.46498690657177,125.48243015498309L350.53935994923967,124.23888051164047L350.53935994923967,104.63823908840574zM309.3422874002291,94.03578988527731L309.3422874002291,122.0367068331698L311.0605957123004,90.4710852260503zM304.41666044289707,92.79224024193469L304.41666044289707,120.79315718982718L309.3422874002291,94.03578988527731zM350.53935994923967,124.23888051164047L348.82105163716835,127.80358517086748L348.82105163716835,108.20294374763273zM353.7466785945004,129.0471348142101L355.46498690657177,125.48243015498309L355.46498690657177,105.88178873174836z" style="fill:rgb(238,238,238); fill-opacity: 0.39"></path><path d="M336.32820738046166,111.7954612936851L335.92345276748904,112.63514218480988L349.2854181574668,116.12124197031069zM335.92345276748904,112.63514218480988L335.7983767007365,113.70113535867334L349.2854181574668,116.12124197031069z" style="fill:rgb(0,0,0)"></path><path d="M348.82105163716835,127.80358517086748L353.7466785945004,129.0471348142101L353.7466785945004,109.44649339097536z" style="fill:rgb(238,238,238); fill-opacity: 0.39"></path><path d="M266.656204518029,72.0223872428752L261.73057756069693,70.77883759953258M261.73057756069693,70.77883759953258L260.01226924862567,74.34354225875957M266.656204518029,72.0223872428752L264.9378962059577,75.5870919021022" style="fill:none;stroke:rgb(0,0,0);stroke-width:1;stroke-linecap:round"></path><path d="M264.9378962059577,75.5870919021022L266.656204518029,72.0223872428752L261.73057756069693,70.77883759953258z" style="fill:rgb(238,238,238); fill-opacity: 0.39"></path><path d="M355.00062038627345,117.56413193230513L380.5302212682467,124.009469012532" style="fill:none;stroke:rgb(0,0,0);stroke-width:1;stroke-linecap:round"></path><path d="M260.01226924862567,74.34354225875958L264.9378962059577,75.5870919021022L261.73057756069693,70.77883759953258z" style="fill:rgb(238,238,238); fill-opacity: 0.39"></path><path d="M311.06059571230037,90.4710852260503L306.1349687549683,89.22753558270769M306.1349687549683,89.22753558270769L304.416660442897,92.79224024193469" style="fill:none;stroke:rgb(0,0,0);stroke-width:1;stroke-linecap:round"></path><path d="M355.46498690657177,105.88178873174836L355.46498690657177,125.48243015498309L350.53935994923967,104.63823908840574z" style="fill:rgb(238,238,238); fill-opacity: 0.39"></path><path d="M260.01226924862567,74.34354225875957L264.9378962059577,75.5870919021022" style="fill:none;stroke:rgb(0,0,0);stroke-width:1;stroke-linecap:round"></path><path d="M350.53935994923967,104.63823908840574L350.53935994923967,124.23888051164047L348.82105163716835,108.20294374763273z" style="fill:rgb(238,238,238); fill-opacity: 0.39"></path><path d="M311.06059571230037,90.4710852260503L309.34228740022905,94.03578988527731" style="fill:none;stroke:rgb(0,0,0);stroke-width:1;stroke-linecap:round"></path><path d="M309.3422874002291,94.03578988527731L311.0605957123004,90.4710852260503L306.1349687549683,89.22753558270769zM304.41666044289707,92.79224024193469L309.3422874002291,94.03578988527731L306.1349687549683,89.22753558270769zM353.7466785945004,109.44649339097536L353.7466785945004,129.0471348142101L355.46498690657177,105.88178873174836zM348.82105163716835,108.20294374763273L348.82105163716835,127.80358517086748L353.7466785945004,109.44649339097536z" style="fill:rgb(238,238,238); fill-opacity: 0.39"></path><path d="M304.416660442897,92.79224024193469L309.34228740022905,94.03578988527731M355.46498690657177,105.88178873174836L350.53935994923967,104.63823908840574M350.53935994923967,104.63823908840574L348.82105163716847,108.20294374763273M399.86937810084316,127.03694941782086L394.94375114351107,125.79339977447823M394.94375114351107,125.5048513123063L394.94375114351107,125.79339977447823M394.94375114351107,125.79339977447823L393.22544283143986,129.35810443370525" style="fill:none;stroke:rgb(0,0,0);stroke-width:1;stroke-linecap:round"></path><path d="M380.73259857473306,123.00602703705427L380.32784396176044,123.84570792817905L393.68980935173806,127.33180771367988zM380.32784396176044,123.84570792817905L380.2027678950079,124.91170110204253L393.68980935173806,127.33180771367988z" style="fill:rgb(0,0,0)"></path><path d="M399.86937810084316,126.74840095564895L394.94375114351107,125.5048513123063M394.94375114351107,125.5048513123063L393.22544283143986,129.0695559715333" style="fill:none;stroke:rgb(0,0,0);stroke-width:1;stroke-linecap:round"></path><path d="M399.86937810084316,127.03694941782085L394.94375114351107,125.79339977447823L394.94375114351107,125.50485131230633z" style="fill:rgb(238,238,238); fill-opacity: 0.39"></path><path d="M355.46498690657177,105.88178873174836L353.7466785945005,109.44649339097536" style="fill:none;stroke:rgb(0,0,0);stroke-width:1;stroke-linecap:round"></path><path d="M399.86937810084316,126.74840095564895L399.86937810084316,127.03694941782085L394.94375114351107,125.50485131230633z" style="fill:rgb(238,238,238); fill-opacity: 0.39"></path><path d="M399.86937810084316,126.74840095564895L399.86937810084316,127.03694941782086M399.86937810084316,127.03694941782086L398.1510697887719,130.60165407704787" style="fill:none;stroke:rgb(0,0,0);stroke-width:1;stroke-linecap:round"></path><path d="M394.94375114351107,125.50485131230633L394.94375114351107,125.79339977447823L393.22544283143975,129.06955597153333z" style="fill:rgb(238,238,238); fill-opacity: 0.39"></path><path d="M399.86937810084316,126.74840095564895L398.1510697887719,130.31310561487595" style="fill:none;stroke:rgb(0,0,0);stroke-width:1;stroke-linecap:round"></path><path d="M393.22544283143975,129.35810443370525L394.94375114351107,125.79339977447823L399.86937810084316,127.03694941782085zM353.7466785945004,109.44649339097536L355.46498690657177,105.88178873174836L350.53935994923967,104.63823908840574zM398.1510697887718,130.31310561487595L399.86937810084316,126.74840095564895L394.94375114351107,125.50485131230633zM394.94375114351107,125.79339977447823L393.22544283143975,129.35810443370525L393.22544283143975,129.06955597153333zM348.82105163716835,108.20294374763273L353.7466785945004,109.44649339097536L350.53935994923967,104.63823908840574zM398.1510697887718,130.60165407704787L399.86937810084316,127.03694941782085L399.86937810084316,126.74840095564895zM393.22544283143975,129.06955597153333L398.1510697887718,130.31310561487595L394.94375114351107,125.50485131230633zM398.1510697887718,130.60165407704787L393.22544283143975,129.35810443370525L399.86937810084316,127.03694941782085z" style="fill:rgb(238,238,238); fill-opacity: 0.39"></path><path d="M348.82105163716847,108.20294374763273L353.7466785945005,109.44649339097536M393.22544283143986,129.0695559715333L393.22544283143986,129.35810443370525M393.22544283143986,129.35810443370525L398.1510697887719,130.60165407704787" style="fill:none;stroke:rgb(0,0,0);stroke-width:1;stroke-linecap:round"></path><path d="M398.1510697887718,130.31310561487595L398.1510697887718,130.60165407704787L399.86937810084316,126.74840095564895z" style="fill:rgb(238,238,238); fill-opacity: 0.39"></path><path d="M393.22544283143986,129.0695559715333L398.1510697887719,130.31310561487595" style="fill:none;stroke:rgb(0,0,0);stroke-width:1;stroke-linecap:round"></path><path d="M393.22544283143975,129.06955597153333L393.22544283143975,129.35810443370525L398.1510697887718,130.31310561487595zM393.22544283143975,129.35810443370525L398.1510697887718,130.60165407704787L398.1510697887718,130.31310561487595z" style="fill:rgb(238,238,238); fill-opacity: 0.39"></path><path d="M398.1510697887719,130.31310561487595L398.1510697887719,130.60165407704787" style="fill:none;stroke:rgb(0,0,0);stroke-width:1;stroke-linecap:round"></path></svg>